<svg xmlns="http://www.w3.org/2000/svg" xmlns:xlink="http://www.w3.org/1999/xlink" id="Layer_1" x="0" y="0" version="1.1" viewBox="0 0 24 24" xml:space="preserve"><path fill="#303C42" d="M23.908 15.12l-4.07-13.563C19.5.422 18.265-.25 17.12.092l-5.157 1.547A2 2 0 0 0 10 0C8.897 0 8 .897 8 2H2C.897 2 0 2.897 0 4v15c0 1.103.897 2 2 2h4.422c.394.613 1.07 1 1.83 1 .214 0 .425-.031.628-.092l13.563-4.07A2.17 2.17 0 0 0 24 15.749a2.18 2.18 0 0 0-.092-.628z"/><path fill="#FFCA28" d="M1 19V4c0-.551.449-1 1-1h5.427l-3.87 1.161A2.17 2.17 0 0 0 2 6.253c0 .213.031.424.092.627L6.028 20H2c-.551 0-1-.449-1-1z"/><path fill="#FFF" d="M22.156 16.88L8.593 20.95a1.209 1.209 0 0 1-1.474-.794L3.05 6.593a1.191 1.191 0 0 1 .794-1.474l4.995-1.498C9.166 3.857 9.565 4 10 4c.18 0 .35-.031.515-.076l.569.853a.5.5 0 1 0 .832-.554l-.526-.79a2 2 0 0 0 .473-.72l5.543-1.663a1.21 1.21 0 0 1 1.475.794l4.07 13.563a1.191 1.191 0 0 1-.794 1.474z"/><linearGradient id="SVGID_1_" x1="10.115" x2="23.503" y1="2.344" y2="15.732" gradientUnits="userSpaceOnUse"><stop offset="0" stop-color="#000" stop-opacity=".1"/><stop offset="1" stop-color="#000" stop-opacity="0"/></linearGradient><path fill="url(#SVGID_1_)" d="M22.156 16.88a1.191 1.191 0 0 0 .794-1.473l-1.192-3.974-8.991-8.991-.904.271a2 2 0 0 1-.473.72l.526.79a.5.5 0 1 1-.832.554l-.569-.853A1.976 1.976 0 0 1 10 4c-.435 0-.834-.143-1.162-.379L22.11 16.894l.045-.013z"/><circle cx="16.5" cy="18.5" r="5.5" fill="#303C42"/><circle cx="16.5" cy="18.5" r="4.5" fill="#E6E6E6"/><circle cx="10" cy="2" r="1" fill="#FF6F00"/><path d="M10.408 1.092a.985.985 0 0 1 .092.408c0 .551-.449 1-1 1a.985.985 0 0 1-.408-.092A.999.999 0 0 0 10 3c.551 0 1-.449 1-1a.999.999 0 0 0-.592-.908z" opacity=".1"/><path fill="#303C42" d="M17 18.293V15.5a.5.5 0 1 0-1 0v3a.5.5 0 0 0 .146.354l1.5 1.5a.498.498 0 0 0 .708 0 .5.5 0 0 0 0-.708L17 18.293z"/><linearGradient id="SVGID_2_" x1="-.894" x2="23.676" y1="5.475" y2="16.932" gradientUnits="userSpaceOnUse"><stop offset="0" stop-color="#FFF" stop-opacity=".2"/><stop offset="1" stop-color="#FFF" stop-opacity="0"/></linearGradient><path fill="url(#SVGID_2_)" d="M23.908 15.12l-4.07-13.563C19.5.422 18.265-.25 17.12.092l-5.157 1.547A2 2 0 0 0 10 0C8.897 0 8 .897 8 2H2C.897 2 0 2.897 0 4v15c0 1.103.897 2 2 2h4.422c.394.613 1.07 1 1.83 1 .214 0 .425-.031.628-.092l2.765-.83A5.503 5.503 0 0 0 16.5 24a5.506 5.506 0 0 0 5.474-6.02l.47-.141A2.17 2.17 0 0 0 24 15.747a2.18 2.18 0 0 0-.092-.627z"/><metadata><rdf:RDF xmlns:dc="http://purl.org/dc/elements/1.1/" xmlns:rdf="http://www.w3.org/1999/02/22-rdf-syntax-ns#" xmlns:rdfs="http://www.w3.org/2000/01/rdf-schema#"><rdf:Description about="https://iconscout.com/legal#licenses" dc:date="2017-08-16" dc:description="note,task,comment,message,time,temp" dc:format="image/svg+xml" dc:language="en" dc:publisher="Iconscout" dc:title="note,task,comment,message,time,temp"><dc:creator><rdf:Bag><rdf:li>Those Icons</rdf:li></rdf:Bag></dc:creator></rdf:Description></rdf:RDF></metadata></svg>